<svg xmlns="http://www.w3.org/2000/svg" viewBox="0 0 512 512" role="img" aria-labelledby="title desc">
  <title id="title">Dopamine Quest Icon</title>
  <desc id="desc">A glowing crystal moon badge for Dopamine Quest.</desc>
  <defs>
    <radialGradient id="bg" cx="35%" cy="25%" r="80%">
      <stop offset="0%" stop-color="#f8d66d"/>
      <stop offset="42%" stop-color="#b890ff"/>
      <stop offset="100%" stop-color="#120817"/>
    </radialGradient>
    <linearGradient id="gem" x1="0" x2="1" y1="0" y2="1">
      <stop offset="0%" stop-color="#ffffff"/>
      <stop offset="45%" stop-color="#6fd7e3"/>
      <stop offset="100%" stop-color="#ff5bd8"/>
    </linearGradient>
  </defs>
  <rect width="512" height="512" rx="116" fill="url(#bg)"/>
  <circle cx="382" cy="116" r="34" fill="#fff8cf" opacity=".92"/>
  <path d="M257 82 371 219 257 438 141 219Z" fill="url(#gem)" stroke="#fff8ff" stroke-width="14" stroke-linejoin="round"/>
  <path d="M141 219h230M257 82v356M198 219l59-137 58 137-58 219Z" fill="none" stroke="#120817" stroke-width="12" stroke-linecap="round" stroke-linejoin="round" opacity=".34"/>
  <path d="M94 104c41 6 70-13 86-56 7 43 33 66 79 70-43 11-69 37-76 79-12-44-41-74-89-93Z" fill="#fff8ff" opacity=".86"/>
</svg>
